<svg xmlns="http://www.w3.org/2000/svg" xmlns:xlink="http://www.w3.org/1999/xlink" width="1500" height="1216.13" viewBox="0 0 1500 1216.13"><defs><style>.cls-1{fill:url(#radial-gradient);}.cls-2{isolation:isolate;}.cls-3{fill:#030f33;}.cls-4{mask:url(#mask);}.cls-5{mix-blend-mode:overlay;}.cls-6{fill:none;}.cls-7{fill:#fff;}.cls-10,.cls-11,.cls-8,.cls-9{fill:#f05328;}.cls-8{opacity:0.08;}.cls-9{opacity:0.12;}.cls-10{opacity:0.18;}.cls-12{fill:#c94020;}</style><radialGradient id="radial-gradient" cx="750" cy="300.63" r="487.5" gradientUnits="userSpaceOnUse"><stop offset="0" stop-color="#fff"/><stop offset="0.16" stop-color="#fcfcfc"/><stop offset="0.29" stop-color="#f2f2f2"/><stop offset="0.41" stop-color="#e1e1e1"/><stop offset="0.52" stop-color="#c9c9c9"/><stop offset="0.63" stop-color="#aaa"/><stop offset="0.74" stop-color="#838383"/><stop offset="0.84" stop-color="#565656"/><stop offset="0.94" stop-color="#232323"/><stop offset="1"/></radialGradient><mask id="mask" x="128.42" y="-186.87" width="1252.03" height="975" maskUnits="userSpaceOnUse"><circle class="cls-1" cx="750" cy="300.63" r="487.5"/></mask></defs><title>Mars</title><g class="cls-2"><g id="BG"><rect class="cls-3" x="-530" y="-220" width="2560" height="1440"/></g><g id="Layer_2" data-name="Layer 2"><g class="cls-4"><g id="stars" class="cls-5"><rect class="cls-6" x="1068.25" y="528.75" width="8.75" height="8.75"/><circle class="cls-7" cx="1072.62" cy="533.13" r="4.38"/><rect class="cls-6" x="1094.89" y="465.85" width="9.24" height="9.24"/><circle class="cls-7" cx="1099.51" cy="470.47" r="4.62"/><rect class="cls-6" x="1077.71" y="354.31" width="8.75" height="8.75"/><circle class="cls-7" cx="1082.09" cy="358.69" r="4.38"/><rect class="cls-6" x="980.02" y="201.36" width="1.76" height="1.76"/><circle class="cls-7" cx="980.9" cy="202.24" r="0.88"/><rect class="cls-6" x="944.29" y="238.54" width="8.67" height="8.67"/><circle class="cls-7" cx="948.62" cy="242.87" r="4.33"/><rect class="cls-6" x="844.02" y="258.5" width="6.74" height="6.74"/><circle class="cls-7" cx="847.39" cy="261.87" r="3.37"/><rect class="cls-6" x="839.48" y="385.17" width="9.54" height="9.54"/><circle class="cls-7" cx="844.25" cy="389.94" r="4.77"/><rect class="cls-6" x="757.59" y="410.26" width="1.36" height="1.36"/><circle class="cls-7" cx="758.27" cy="410.94" r="0.68"/><rect class="cls-6" x="740.41" y="472.23" width="3.25" height="3.25"/><circle class="cls-7" cx="742.03" cy="473.85" r="1.62"/><rect class="cls-6" x="798.77" y="507.13" width="4.04" height="4.04"/><circle class="cls-7" cx="800.79" cy="509.15" r="2.02"/><rect class="cls-6" x="828.66" y="462.58" width="1.41" height="1.41"/><circle class="cls-7" cx="829.36" cy="463.28" r="0.7"/><rect class="cls-6" x="888.8" y="379.6" width="3.88" height="3.88"/><circle class="cls-7" cx="890.74" cy="381.55" r="1.94"/><rect class="cls-6" x="919.71" y="247.15" width="1.68" height="1.68"/><circle class="cls-7" cx="920.55" cy="247.99" r="0.84"/><rect class="cls-6" x="777.46" y="100.02" width="5.04" height="5.04"/><circle class="cls-7" cx="779.98" cy="102.54" r="2.52"/><rect class="cls-6" x="706.87" y="196.16" width="8.25" height="8.25"/><circle class="cls-7" cx="710.99" cy="200.28" r="4.12"/><rect class="cls-6" x="627.63" y="229.18" width="5.4" height="5.4"/><circle class="cls-7" cx="630.33" cy="231.88" r="2.7"/><rect class="cls-6" x="831.48" y="285.52" width="9.95" height="9.95"/><circle class="cls-7" cx="836.46" cy="290.5" r="4.98"/><rect class="cls-6" x="884.64" y="200.55" width="3.28" height="3.28"/><circle class="cls-7" cx="886.28" cy="202.19" r="1.64"/><rect class="cls-6" x="680.63" y="39.09" width="8.26" height="8.26"/><circle class="cls-7" cx="684.76" cy="43.22" r="4.13"/><rect class="cls-6" x="610.56" y="140.54" width="4.64" height="4.64"/><circle class="cls-7" cx="612.88" cy="142.86" r="2.32"/><rect class="cls-6" x="461.77" y="131.91" width="6.8" height="6.8"/><circle class="cls-7" cx="465.17" cy="135.31" r="3.4"/><rect class="cls-6" x="369.43" y="211.69" width="6.12" height="6.12"/><circle class="cls-7" cx="372.49" cy="214.75" r="3.06"/><rect class="cls-6" x="327.34" y="310.64" width="4.53" height="4.53"/><circle class="cls-7" cx="329.61" cy="312.9" r="2.27"/><rect class="cls-6" x="242.2" y="387.72" width="9.1" height="9.1"/><circle class="cls-7" cx="246.75" cy="392.27" r="4.55"/><rect class="cls-6" x="332.83" y="455.78" width="1.46" height="1.46"/><circle class="cls-7" cx="333.56" cy="456.51" r="0.73"/><rect class="cls-6" x="442.81" y="380.89" width="6.42" height="6.42"/><circle class="cls-7" cx="446.02" cy="384.11" r="3.21"/><rect class="cls-6" x="478.18" y="342.57" width="1.17" height="1.17"/><circle class="cls-7" cx="478.77" cy="343.16" r="0.59"/><rect class="cls-6" x="489.67" y="251.15" width="3.98" height="3.98"/><circle class="cls-7" cx="491.66" cy="253.14" r="1.99"/><rect class="cls-6" x="592.56" y="255.39" width="1.84" height="1.84"/><circle class="cls-7" cx="593.48" cy="256.31" r="0.92"/><rect class="cls-6" x="621.15" y="162.44" width="1.55" height="1.55"/><circle class="cls-7" cx="621.92" cy="163.22" r="0.78"/><rect class="cls-6" x="634.75" y="83.03" width="3.56" height="3.56"/><circle class="cls-7" cx="636.52" cy="84.81" r="1.78"/><rect class="cls-6" x="1213.43" y="149.68" width="4.52" height="4.52"/><circle class="cls-7" cx="1215.69" cy="151.94" r="2.26"/><rect class="cls-6" x="1365.61" y="265.49" width="4.39" height="4.39"/><circle class="cls-7" cx="1367.8" cy="267.69" r="2.19"/><rect class="cls-6" x="1205.47" y="39.57" width="3.15" height="3.15"/><circle class="cls-7" cx="1207.04" cy="41.15" r="1.58"/><rect class="cls-6" x="1111.7" y="128.54" width="0.81" height="0.81"/><circle class="cls-7" cx="1112.11" cy="128.95" r="0.41"/><rect class="cls-6" x="1023.19" y="225.41" width="8.8" height="8.8"/><circle class="cls-7" cx="1027.59" cy="229.81" r="4.4"/><rect class="cls-6" x="868.12" y="217.89" width="8.37" height="8.37"/><circle class="cls-7" cx="872.31" cy="222.08" r="4.19"/><rect class="cls-6" x="994.44" y="345.32" width="6.35" height="6.35"/><circle class="cls-7" cx="997.61" cy="348.49" r="3.18"/><rect class="cls-6" x="982.5" y="275.35" width="9.19" height="9.19"/><circle class="cls-7" cx="987.09" cy="279.95" r="4.59"/><rect class="cls-6" x="1027.87" y="219.66" width="8.26" height="8.26"/><circle class="cls-7" cx="1032" cy="223.79" r="4.13"/><rect class="cls-6" x="954.75" y="109.81" width="8.98" height="8.98"/><circle class="cls-7" cx="959.24" cy="114.31" r="4.49"/><rect class="cls-6" x="1053.16" y="8.62" width="7.97" height="7.97"/><circle class="cls-7" cx="1057.15" cy="12.61" r="3.99"/><rect class="cls-6" x="697.38" y="2.34" width="5.12" height="5.12"/><circle class="cls-7" cx="699.93" cy="4.9" r="2.56"/><rect class="cls-6" x="497.4" y="86.97" width="1" height="1"/><circle class="cls-7" cx="497.9" cy="87.47" r="0.5"/><rect class="cls-6" x="673.69" y="19.28" width="3.77" height="3.77"/><circle class="cls-7" cx="675.58" cy="21.17" r="1.89"/><rect class="cls-6" x="348.41" y="116.65" width="1.54" height="1.54"/><circle class="cls-7" cx="349.18" cy="117.42" r="0.77"/><rect class="cls-6" x="257" y="28.03" width="2.15" height="2.15"/><circle class="cls-7" cx="258.07" cy="29.11" r="1.08"/><rect class="cls-6" x="188.13" y="70.67" width="5.41" height="5.41"/><circle class="cls-7" cx="190.83" cy="73.38" r="2.7"/><rect class="cls-6" x="172.3" y="159.13" width="2.61" height="2.61"/><circle class="cls-7" cx="173.6" cy="160.43" r="1.3"/><rect class="cls-6" x="204.95" y="226.11" width="7.69" height="7.69"/><circle class="cls-7" cx="208.79" cy="229.95" r="3.84"/><rect class="cls-6" x="128.42" y="339.13" width="3.98" height="3.98"/><circle class="cls-7" cx="130.41" cy="341.12" r="1.99"/><rect class="cls-6" x="310.99" y="372.23" width="2.51" height="2.51"/><circle class="cls-7" cx="312.25" cy="373.49" r="1.26"/><rect class="cls-6" x="384.96" y="250.59" width="9.8" height="9.8"/><circle class="cls-7" cx="389.85" cy="255.49" r="4.9"/><rect class="cls-6" x="512.35" y="144.22" width="9.76" height="9.76"/><circle class="cls-7" cx="517.23" cy="149.1" r="4.88"/><rect class="cls-6" x="177.05" y="512.8" width="3.54" height="3.54"/><circle class="cls-7" cx="178.81" cy="514.56" r="1.77"/><rect class="cls-6" x="292.75" y="584.06" width="4.89" height="4.89"/><circle class="cls-7" cx="295.2" cy="586.51" r="2.45"/><rect class="cls-6" x="429.78" y="567.92" width="4.25" height="4.25"/><circle class="cls-7" cx="431.91" cy="570.04" r="2.13"/><rect class="cls-6" x="580.59" y="554.67" width="2.65" height="2.65"/><circle class="cls-7" cx="581.91" cy="556" r="1.33"/><rect class="cls-6" x="713.91" y="605.23" width="3.35" height="3.35"/><circle class="cls-7" cx="715.59" cy="606.91" r="1.68"/><rect class="cls-6" x="738.23" y="371.24" width="4.92" height="4.92"/><circle class="cls-7" cx="740.69" cy="373.71" r="2.46"/><rect class="cls-6" x="653.25" y="378.07" width="4.28" height="4.28"/><circle class="cls-7" cx="655.39" cy="380.21" r="2.14"/><rect class="cls-6" x="584.49" y="453.36" width="9.58" height="9.58"/><circle class="cls-7" cx="589.28" cy="458.14" r="4.79"/><rect class="cls-6" x="476.95" y="430.47" width="7.77" height="7.77"/><circle class="cls-7" cx="480.83" cy="434.36" r="3.89"/><rect class="cls-6" x="393.44" y="401.29" width="0.77" height="0.77"/><circle class="cls-7" cx="393.83" cy="401.68" r="0.39"/><rect class="cls-6" x="582.32" y="460.7" width="1.34" height="1.34"/><circle class="cls-7" cx="582.99" cy="461.37" r="0.67"/><rect class="cls-6" x="470.17" y="461.43" width="2.53" height="2.53"/><circle class="cls-7" cx="471.44" cy="462.69" r="1.26"/><rect class="cls-6" x="358.69" y="488.15" width="2.74" height="2.74"/><circle class="cls-7" cx="360.06" cy="489.52" r="1.37"/><rect class="cls-6" x="280.55" y="464.59" width="2.9" height="2.9"/><circle class="cls-7" cx="282" cy="466.04" r="1.45"/><rect class="cls-6" x="1054.66" y="589.11" width="2.55" height="2.55"/><circle class="cls-7" cx="1055.93" cy="590.39" r="1.27"/><rect class="cls-6" x="968.33" y="537.78" width="4.11" height="4.11"/><circle class="cls-7" cx="970.38" cy="539.84" r="2.06"/><rect class="cls-6" x="1231.71" y="597.05" width="6.52" height="6.52"/><circle class="cls-7" cx="1234.97" cy="600.3" r="3.26"/><rect class="cls-6" x="1143.24" y="617.73" width="1.25" height="1.25"/><circle class="cls-7" cx="1143.87" cy="618.36" r="0.62"/><rect class="cls-6" x="1079.28" y="605.31" width="9.6" height="9.6"/><circle class="cls-7" cx="1084.08" cy="610.11" r="4.8"/><rect class="cls-6" x="1195.25" y="378.57" width="6.55" height="6.55"/><circle class="cls-7" cx="1198.52" cy="381.84" r="3.28"/><rect class="cls-6" x="1229.69" y="599.15" width="3.6" height="3.6"/><circle class="cls-7" cx="1231.49" cy="600.96" r="1.8"/><rect class="cls-6" x="1375.24" y="553.45" width="5.2" height="5.2"/><circle class="cls-7" cx="1377.84" cy="556.05" r="2.6"/></g></g><g class="cls-4"><g id="stars-2" data-name="stars" class="cls-5"><rect class="cls-6" x="1068.25" y="528.75" width="8.75" height="8.75"/><circle class="cls-7" cx="1072.62" cy="533.13" r="4.38"/><rect class="cls-6" x="1094.89" y="465.85" width="9.24" height="9.24"/><circle class="cls-7" cx="1099.51" cy="470.47" r="4.62"/><rect class="cls-6" x="1077.71" y="354.31" width="8.75" height="8.75"/><circle class="cls-7" cx="1082.09" cy="358.69" r="4.38"/><rect class="cls-6" x="980.02" y="201.36" width="1.76" height="1.76"/><circle class="cls-7" cx="980.9" cy="202.24" r="0.88"/><rect class="cls-6" x="944.29" y="238.54" width="8.67" height="8.67"/><circle class="cls-7" cx="948.62" cy="242.87" r="4.33"/><rect class="cls-6" x="844.02" y="258.5" width="6.74" height="6.74"/><circle class="cls-7" cx="847.39" cy="261.87" r="3.37"/><rect class="cls-6" x="839.48" y="385.17" width="9.54" height="9.54"/><circle class="cls-7" cx="844.25" cy="389.94" r="4.77"/><rect class="cls-6" x="757.59" y="410.26" width="1.36" height="1.36"/><circle class="cls-7" cx="758.27" cy="410.94" r="0.68"/><rect class="cls-6" x="740.41" y="472.23" width="3.25" height="3.25"/><circle class="cls-7" cx="742.03" cy="473.85" r="1.62"/><rect class="cls-6" x="798.77" y="507.13" width="4.04" height="4.04"/><circle class="cls-7" cx="800.79" cy="509.15" r="2.02"/><rect class="cls-6" x="828.66" y="462.58" width="1.41" height="1.41"/><circle class="cls-7" cx="829.36" cy="463.28" r="0.7"/><rect class="cls-6" x="888.8" y="379.6" width="3.88" height="3.88"/><circle class="cls-7" cx="890.74" cy="381.55" r="1.94"/><rect class="cls-6" x="919.71" y="247.15" width="1.68" height="1.68"/><circle class="cls-7" cx="920.55" cy="247.99" r="0.84"/><rect class="cls-6" x="777.46" y="100.02" width="5.04" height="5.04"/><circle class="cls-7" cx="779.98" cy="102.54" r="2.52"/><rect class="cls-6" x="706.87" y="196.16" width="8.25" height="8.25"/><circle class="cls-7" cx="710.99" cy="200.28" r="4.12"/><rect class="cls-6" x="627.63" y="229.18" width="5.4" height="5.4"/><circle class="cls-7" cx="630.33" cy="231.88" r="2.7"/><rect class="cls-6" x="831.48" y="285.52" width="9.95" height="9.95"/><circle class="cls-7" cx="836.46" cy="290.5" r="4.98"/><rect class="cls-6" x="884.64" y="200.55" width="3.28" height="3.28"/><circle class="cls-7" cx="886.28" cy="202.19" r="1.64"/><rect class="cls-6" x="680.63" y="39.09" width="8.26" height="8.26"/><circle class="cls-7" cx="684.76" cy="43.22" r="4.13"/><rect class="cls-6" x="610.56" y="140.54" width="4.64" height="4.64"/><circle class="cls-7" cx="612.88" cy="142.86" r="2.32"/><rect class="cls-6" x="461.77" y="131.91" width="6.8" height="6.8"/><circle class="cls-7" cx="465.17" cy="135.31" r="3.4"/><rect class="cls-6" x="369.43" y="211.69" width="6.12" height="6.12"/><circle class="cls-7" cx="372.49" cy="214.75" r="3.06"/><rect class="cls-6" x="327.34" y="310.64" width="4.53" height="4.53"/><circle class="cls-7" cx="329.61" cy="312.9" r="2.27"/><rect class="cls-6" x="242.2" y="387.72" width="9.1" height="9.1"/><circle class="cls-7" cx="246.75" cy="392.27" r="4.55"/><rect class="cls-6" x="332.83" y="455.78" width="1.46" height="1.46"/><circle class="cls-7" cx="333.56" cy="456.51" r="0.73"/><rect class="cls-6" x="442.81" y="380.89" width="6.42" height="6.42"/><circle class="cls-7" cx="446.02" cy="384.11" r="3.21"/><rect class="cls-6" x="478.18" y="342.57" width="1.17" height="1.17"/><circle class="cls-7" cx="478.77" cy="343.16" r="0.59"/><rect class="cls-6" x="489.67" y="251.15" width="3.98" height="3.98"/><circle class="cls-7" cx="491.66" cy="253.14" r="1.99"/><rect class="cls-6" x="592.56" y="255.39" width="1.84" height="1.84"/><circle class="cls-7" cx="593.48" cy="256.31" r="0.92"/><rect class="cls-6" x="621.15" y="162.44" width="1.55" height="1.55"/><circle class="cls-7" cx="621.92" cy="163.22" r="0.78"/><rect class="cls-6" x="634.75" y="83.03" width="3.56" height="3.56"/><circle class="cls-7" cx="636.52" cy="84.81" r="1.78"/><rect class="cls-6" x="1213.43" y="149.68" width="4.52" height="4.52"/><circle class="cls-7" cx="1215.69" cy="151.94" r="2.26"/><rect class="cls-6" x="1365.61" y="265.49" width="4.39" height="4.39"/><circle class="cls-7" cx="1367.8" cy="267.69" r="2.19"/><rect class="cls-6" x="1205.47" y="39.57" width="3.15" height="3.15"/><circle class="cls-7" cx="1207.04" cy="41.15" r="1.58"/><rect class="cls-6" x="1111.7" y="128.54" width="0.81" height="0.81"/><circle class="cls-7" cx="1112.11" cy="128.95" r="0.41"/><rect class="cls-6" x="1023.19" y="225.41" width="8.8" height="8.8"/><circle class="cls-7" cx="1027.59" cy="229.81" r="4.4"/><rect class="cls-6" x="868.12" y="217.89" width="8.37" height="8.37"/><circle class="cls-7" cx="872.31" cy="222.08" r="4.19"/><rect class="cls-6" x="994.44" y="345.32" width="6.35" height="6.35"/><circle class="cls-7" cx="997.61" cy="348.49" r="3.18"/><rect class="cls-6" x="982.5" y="275.35" width="9.19" height="9.19"/><circle class="cls-7" cx="987.09" cy="279.95" r="4.59"/><rect class="cls-6" x="1027.87" y="219.66" width="8.26" height="8.26"/><circle class="cls-7" cx="1032" cy="223.79" r="4.13"/><rect class="cls-6" x="954.75" y="109.81" width="8.98" height="8.98"/><circle class="cls-7" cx="959.24" cy="114.31" r="4.49"/><rect class="cls-6" x="1053.16" y="8.62" width="7.97" height="7.97"/><circle class="cls-7" cx="1057.15" cy="12.61" r="3.99"/><rect class="cls-6" x="697.38" y="2.34" width="5.12" height="5.12"/><circle class="cls-7" cx="699.93" cy="4.9" r="2.56"/><rect class="cls-6" x="497.4" y="86.97" width="1" height="1"/><circle class="cls-7" cx="497.9" cy="87.47" r="0.5"/><rect class="cls-6" x="673.69" y="19.28" width="3.77" height="3.77"/><circle class="cls-7" cx="675.58" cy="21.17" r="1.89"/><rect class="cls-6" x="348.41" y="116.65" width="1.54" height="1.54"/><circle class="cls-7" cx="349.18" cy="117.42" r="0.77"/><rect class="cls-6" x="257" y="28.03" width="2.15" height="2.15"/><circle class="cls-7" cx="258.07" cy="29.11" r="1.08"/><rect class="cls-6" x="188.13" y="70.67" width="5.41" height="5.41"/><circle class="cls-7" cx="190.83" cy="73.38" r="2.7"/><rect class="cls-6" x="172.3" y="159.13" width="2.61" height="2.61"/><circle class="cls-7" cx="173.6" cy="160.43" r="1.3"/><rect class="cls-6" x="204.95" y="226.11" width="7.69" height="7.69"/><circle class="cls-7" cx="208.79" cy="229.95" r="3.84"/><rect class="cls-6" x="128.42" y="339.13" width="3.98" height="3.98"/><circle class="cls-7" cx="130.41" cy="341.12" r="1.99"/><rect class="cls-6" x="310.99" y="372.23" width="2.51" height="2.51"/><circle class="cls-7" cx="312.25" cy="373.49" r="1.26"/><rect class="cls-6" x="384.96" y="250.59" width="9.8" height="9.8"/><circle class="cls-7" cx="389.85" cy="255.49" r="4.9"/><rect class="cls-6" x="512.35" y="144.22" width="9.76" height="9.76"/><circle class="cls-7" cx="517.23" cy="149.1" r="4.88"/><rect class="cls-6" x="177.05" y="512.8" width="3.54" height="3.54"/><circle class="cls-7" cx="178.81" cy="514.56" r="1.77"/><rect class="cls-6" x="292.75" y="584.06" width="4.89" height="4.89"/><circle class="cls-7" cx="295.2" cy="586.51" r="2.45"/><rect class="cls-6" x="429.78" y="567.92" width="4.25" height="4.25"/><circle class="cls-7" cx="431.91" cy="570.04" r="2.13"/><rect class="cls-6" x="580.59" y="554.67" width="2.65" height="2.65"/><circle class="cls-7" cx="581.91" cy="556" r="1.33"/><rect class="cls-6" x="713.91" y="605.23" width="3.35" height="3.35"/><circle class="cls-7" cx="715.59" cy="606.91" r="1.68"/><rect class="cls-6" x="738.23" y="371.24" width="4.92" height="4.92"/><circle class="cls-7" cx="740.69" cy="373.71" r="2.46"/><rect class="cls-6" x="653.25" y="378.07" width="4.28" height="4.28"/><circle class="cls-7" cx="655.39" cy="380.21" r="2.14"/><rect class="cls-6" x="584.49" y="453.36" width="9.58" height="9.58"/><circle class="cls-7" cx="589.28" cy="458.14" r="4.79"/><rect class="cls-6" x="476.95" y="430.47" width="7.77" height="7.77"/><circle class="cls-7" cx="480.83" cy="434.36" r="3.89"/><rect class="cls-6" x="393.44" y="401.29" width="0.77" height="0.77"/><circle class="cls-7" cx="393.83" cy="401.68" r="0.39"/><rect class="cls-6" x="582.32" y="460.7" width="1.34" height="1.34"/><circle class="cls-7" cx="582.99" cy="461.37" r="0.67"/><rect class="cls-6" x="470.17" y="461.43" width="2.53" height="2.53"/><circle class="cls-7" cx="471.44" cy="462.69" r="1.26"/><rect class="cls-6" x="358.69" y="488.15" width="2.74" height="2.74"/><circle class="cls-7" cx="360.06" cy="489.52" r="1.37"/><rect class="cls-6" x="280.55" y="464.59" width="2.9" height="2.9"/><circle class="cls-7" cx="282" cy="466.04" r="1.45"/><rect class="cls-6" x="1054.66" y="589.11" width="2.55" height="2.55"/><circle class="cls-7" cx="1055.93" cy="590.39" r="1.27"/><rect class="cls-6" x="968.33" y="537.78" width="4.11" height="4.11"/><circle class="cls-7" cx="970.38" cy="539.84" r="2.06"/><rect class="cls-6" x="1231.71" y="597.05" width="6.52" height="6.52"/><circle class="cls-7" cx="1234.97" cy="600.3" r="3.26"/><rect class="cls-6" x="1143.24" y="617.73" width="1.25" height="1.25"/><circle class="cls-7" cx="1143.87" cy="618.36" r="0.62"/><rect class="cls-6" x="1079.28" y="605.31" width="9.6" height="9.6"/><circle class="cls-7" cx="1084.08" cy="610.11" r="4.8"/><rect class="cls-6" x="1195.25" y="378.57" width="6.55" height="6.55"/><circle class="cls-7" cx="1198.52" cy="381.84" r="3.28"/><rect class="cls-6" x="1229.69" y="599.15" width="3.6" height="3.6"/><circle class="cls-7" cx="1231.49" cy="600.96" r="1.8"/><rect class="cls-6" x="1375.24" y="553.45" width="5.2" height="5.2"/><circle class="cls-7" cx="1377.84" cy="556.05" r="2.6"/></g></g><g class="cls-4"><g id="stars-3" data-name="stars" class="cls-5"><rect class="cls-6" x="1068.25" y="528.75" width="8.75" height="8.75"/><circle class="cls-7" cx="1072.62" cy="533.13" r="4.38"/><rect class="cls-6" x="1094.89" y="465.85" width="9.24" height="9.24"/><circle class="cls-7" cx="1099.51" cy="470.47" r="4.62"/><rect class="cls-6" x="1077.71" y="354.31" width="8.75" height="8.75"/><circle class="cls-7" cx="1082.09" cy="358.69" r="4.38"/><rect class="cls-6" x="980.02" y="201.36" width="1.76" height="1.76"/><circle class="cls-7" cx="980.9" cy="202.24" r="0.88"/><rect class="cls-6" x="944.29" y="238.54" width="8.67" height="8.67"/><circle class="cls-7" cx="948.62" cy="242.87" r="4.33"/><rect class="cls-6" x="844.02" y="258.5" width="6.74" height="6.74"/><circle class="cls-7" cx="847.39" cy="261.87" r="3.37"/><rect class="cls-6" x="839.48" y="385.17" width="9.54" height="9.54"/><circle class="cls-7" cx="844.25" cy="389.94" r="4.77"/><rect class="cls-6" x="757.59" y="410.26" width="1.36" height="1.36"/><circle class="cls-7" cx="758.27" cy="410.94" r="0.68"/><rect class="cls-6" x="740.41" y="472.23" width="3.25" height="3.25"/><circle class="cls-7" cx="742.03" cy="473.85" r="1.62"/><rect class="cls-6" x="798.77" y="507.13" width="4.04" height="4.04"/><circle class="cls-7" cx="800.79" cy="509.15" r="2.02"/><rect class="cls-6" x="828.66" y="462.58" width="1.41" height="1.41"/><circle class="cls-7" cx="829.36" cy="463.28" r="0.7"/><rect class="cls-6" x="888.8" y="379.6" width="3.88" height="3.88"/><circle class="cls-7" cx="890.74" cy="381.55" r="1.94"/><rect class="cls-6" x="919.71" y="247.15" width="1.68" height="1.68"/><circle class="cls-7" cx="920.55" cy="247.99" r="0.84"/><rect class="cls-6" x="777.46" y="100.02" width="5.04" height="5.04"/><circle class="cls-7" cx="779.98" cy="102.54" r="2.52"/><rect class="cls-6" x="706.87" y="196.16" width="8.25" height="8.25"/><circle class="cls-7" cx="710.99" cy="200.28" r="4.12"/><rect class="cls-6" x="627.63" y="229.18" width="5.4" height="5.4"/><circle class="cls-7" cx="630.33" cy="231.88" r="2.7"/><rect class="cls-6" x="831.48" y="285.52" width="9.95" height="9.95"/><circle class="cls-7" cx="836.46" cy="290.5" r="4.98"/><rect class="cls-6" x="884.64" y="200.55" width="3.28" height="3.28"/><circle class="cls-7" cx="886.28" cy="202.19" r="1.64"/><rect class="cls-6" x="680.63" y="39.09" width="8.26" height="8.26"/><circle class="cls-7" cx="684.76" cy="43.22" r="4.13"/><rect class="cls-6" x="610.56" y="140.54" width="4.64" height="4.64"/><circle class="cls-7" cx="612.88" cy="142.86" r="2.32"/><rect class="cls-6" x="461.77" y="131.91" width="6.8" height="6.8"/><circle class="cls-7" cx="465.17" cy="135.31" r="3.4"/><rect class="cls-6" x="369.43" y="211.69" width="6.12" height="6.12"/><circle class="cls-7" cx="372.49" cy="214.75" r="3.06"/><rect class="cls-6" x="327.34" y="310.64" width="4.53" height="4.53"/><circle class="cls-7" cx="329.61" cy="312.9" r="2.27"/><rect class="cls-6" x="242.2" y="387.72" width="9.1" height="9.1"/><circle class="cls-7" cx="246.75" cy="392.27" r="4.55"/><rect class="cls-6" x="332.83" y="455.78" width="1.46" height="1.46"/><circle class="cls-7" cx="333.56" cy="456.51" r="0.73"/><rect class="cls-6" x="442.81" y="380.89" width="6.42" height="6.42"/><circle class="cls-7" cx="446.02" cy="384.11" r="3.21"/><rect class="cls-6" x="478.18" y="342.57" width="1.17" height="1.17"/><circle class="cls-7" cx="478.77" cy="343.16" r="0.59"/><rect class="cls-6" x="489.67" y="251.15" width="3.98" height="3.98"/><circle class="cls-7" cx="491.66" cy="253.14" r="1.99"/><rect class="cls-6" x="592.56" y="255.39" width="1.84" height="1.84"/><circle class="cls-7" cx="593.48" cy="256.31" r="0.92"/><rect class="cls-6" x="621.15" y="162.44" width="1.55" height="1.55"/><circle class="cls-7" cx="621.92" cy="163.22" r="0.78"/><rect class="cls-6" x="634.75" y="83.03" width="3.56" height="3.56"/><circle class="cls-7" cx="636.52" cy="84.81" r="1.78"/><rect class="cls-6" x="1213.43" y="149.68" width="4.52" height="4.52"/><circle class="cls-7" cx="1215.69" cy="151.94" r="2.26"/><rect class="cls-6" x="1365.61" y="265.49" width="4.39" height="4.39"/><circle class="cls-7" cx="1367.8" cy="267.69" r="2.19"/><rect class="cls-6" x="1205.47" y="39.57" width="3.15" height="3.15"/><circle class="cls-7" cx="1207.04" cy="41.15" r="1.58"/><rect class="cls-6" x="1111.7" y="128.54" width="0.81" height="0.81"/><circle class="cls-7" cx="1112.11" cy="128.95" r="0.41"/><rect class="cls-6" x="1023.19" y="225.41" width="8.8" height="8.8"/><circle class="cls-7" cx="1027.59" cy="229.81" r="4.4"/><rect class="cls-6" x="868.12" y="217.89" width="8.37" height="8.37"/><circle class="cls-7" cx="872.31" cy="222.08" r="4.19"/><rect class="cls-6" x="994.44" y="345.32" width="6.35" height="6.35"/><circle class="cls-7" cx="997.61" cy="348.49" r="3.18"/><rect class="cls-6" x="982.5" y="275.35" width="9.19" height="9.19"/><circle class="cls-7" cx="987.09" cy="279.95" r="4.59"/><rect class="cls-6" x="1027.87" y="219.66" width="8.26" height="8.26"/><circle class="cls-7" cx="1032" cy="223.79" r="4.13"/><rect class="cls-6" x="954.75" y="109.81" width="8.98" height="8.98"/><circle class="cls-7" cx="959.24" cy="114.31" r="4.49"/><rect class="cls-6" x="1053.16" y="8.62" width="7.97" height="7.97"/><circle class="cls-7" cx="1057.15" cy="12.61" r="3.99"/><rect class="cls-6" x="697.38" y="2.34" width="5.12" height="5.12"/><circle class="cls-7" cx="699.93" cy="4.9" r="2.56"/><rect class="cls-6" x="497.4" y="86.97" width="1" height="1"/><circle class="cls-7" cx="497.9" cy="87.47" r="0.5"/><rect class="cls-6" x="673.69" y="19.28" width="3.77" height="3.77"/><circle class="cls-7" cx="675.58" cy="21.17" r="1.89"/><rect class="cls-6" x="348.41" y="116.65" width="1.54" height="1.54"/><circle class="cls-7" cx="349.18" cy="117.42" r="0.77"/><rect class="cls-6" x="257" y="28.03" width="2.15" height="2.15"/><circle class="cls-7" cx="258.07" cy="29.11" r="1.08"/><rect class="cls-6" x="188.13" y="70.67" width="5.41" height="5.41"/><circle class="cls-7" cx="190.83" cy="73.38" r="2.7"/><rect class="cls-6" x="172.3" y="159.13" width="2.61" height="2.61"/><circle class="cls-7" cx="173.6" cy="160.43" r="1.3"/><rect class="cls-6" x="204.95" y="226.11" width="7.69" height="7.69"/><circle class="cls-7" cx="208.79" cy="229.95" r="3.84"/><rect class="cls-6" x="128.42" y="339.13" width="3.98" height="3.98"/><circle class="cls-7" cx="130.41" cy="341.12" r="1.99"/><rect class="cls-6" x="310.99" y="372.23" width="2.51" height="2.51"/><circle class="cls-7" cx="312.25" cy="373.49" r="1.26"/><rect class="cls-6" x="384.96" y="250.59" width="9.8" height="9.8"/><circle class="cls-7" cx="389.85" cy="255.49" r="4.9"/><rect class="cls-6" x="512.35" y="144.22" width="9.76" height="9.76"/><circle class="cls-7" cx="517.23" cy="149.1" r="4.88"/><rect class="cls-6" x="177.05" y="512.8" width="3.54" height="3.54"/><circle class="cls-7" cx="178.81" cy="514.56" r="1.77"/><rect class="cls-6" x="292.75" y="584.06" width="4.89" height="4.89"/><circle class="cls-7" cx="295.2" cy="586.51" r="2.45"/><rect class="cls-6" x="429.78" y="567.92" width="4.25" height="4.25"/><circle class="cls-7" cx="431.91" cy="570.04" r="2.13"/><rect class="cls-6" x="580.59" y="554.67" width="2.65" height="2.65"/><circle class="cls-7" cx="581.91" cy="556" r="1.33"/><rect class="cls-6" x="713.91" y="605.23" width="3.35" height="3.35"/><circle class="cls-7" cx="715.59" cy="606.91" r="1.68"/><rect class="cls-6" x="738.23" y="371.24" width="4.92" height="4.92"/><circle class="cls-7" cx="740.69" cy="373.71" r="2.46"/><rect class="cls-6" x="653.25" y="378.07" width="4.28" height="4.28"/><circle class="cls-7" cx="655.39" cy="380.21" r="2.14"/><rect class="cls-6" x="584.49" y="453.36" width="9.58" height="9.58"/><circle class="cls-7" cx="589.28" cy="458.14" r="4.79"/><rect class="cls-6" x="476.95" y="430.47" width="7.77" height="7.77"/><circle class="cls-7" cx="480.83" cy="434.36" r="3.89"/><rect class="cls-6" x="393.44" y="401.29" width="0.77" height="0.77"/><circle class="cls-7" cx="393.83" cy="401.68" r="0.39"/><rect class="cls-6" x="582.32" y="460.7" width="1.34" height="1.34"/><circle class="cls-7" cx="582.99" cy="461.37" r="0.67"/><rect class="cls-6" x="470.17" y="461.43" width="2.53" height="2.53"/><circle class="cls-7" cx="471.44" cy="462.69" r="1.26"/><rect class="cls-6" x="358.69" y="488.15" width="2.74" height="2.74"/><circle class="cls-7" cx="360.06" cy="489.52" r="1.37"/><rect class="cls-6" x="280.55" y="464.59" width="2.9" height="2.9"/><circle class="cls-7" cx="282" cy="466.04" r="1.45"/><rect class="cls-6" x="1054.66" y="589.11" width="2.55" height="2.55"/><circle class="cls-7" cx="1055.93" cy="590.39" r="1.27"/><rect class="cls-6" x="968.33" y="537.78" width="4.11" height="4.11"/><circle class="cls-7" cx="970.38" cy="539.84" r="2.06"/><rect class="cls-6" x="1231.71" y="597.05" width="6.52" height="6.52"/><circle class="cls-7" cx="1234.97" cy="600.3" r="3.26"/><rect class="cls-6" x="1143.24" y="617.73" width="1.25" height="1.25"/><circle class="cls-7" cx="1143.87" cy="618.36" r="0.62"/><rect class="cls-6" x="1079.28" y="605.31" width="9.6" height="9.6"/><circle class="cls-7" cx="1084.08" cy="610.11" r="4.8"/><rect class="cls-6" x="1195.25" y="378.57" width="6.55" height="6.55"/><circle class="cls-7" cx="1198.52" cy="381.84" r="3.28"/><rect class="cls-6" x="1229.69" y="599.15" width="3.6" height="3.6"/><circle class="cls-7" cx="1231.49" cy="600.96" r="1.8"/><rect class="cls-6" x="1375.24" y="553.45" width="5.2" height="5.2"/><circle class="cls-7" cx="1377.84" cy="556.05" r="2.6"/></g></g><rect class="cls-6" x="1025.88" y="36.15" width="2.59" height="2.59"/><circle class="cls-7" cx="1027.17" cy="37.45" r="1.3"/><rect class="cls-6" x="1158.08" y="123.47" width="1.32" height="1.32"/><circle class="cls-7" cx="1158.74" cy="124.13" r="0.66"/><rect class="cls-6" x="1164.95" y="103.27" width="7.76" height="7.76"/><circle class="cls-7" cx="1168.83" cy="107.15" r="3.88"/><rect class="cls-6" x="1004.92" y="-2.97" width="5.28" height="5.28"/><circle class="cls-7" cx="1007.56" cy="-0.33" r="2.64"/><rect class="cls-6" x="1111.97" y="54.75" width="2.22" height="2.22"/><circle class="cls-7" cx="1113.08" cy="55.86" r="1.11"/><rect class="cls-6" x="1246.55" y="113.05" width="5.25" height="5.25"/><circle class="cls-7" cx="1249.17" cy="115.67" r="2.62"/><rect class="cls-6" x="504.62" y="48.24" width="4.62" height="4.62"/><circle class="cls-7" cx="506.93" cy="50.55" r="2.31"/><rect class="cls-6" x="743.59" y="18.16" width="4.59" height="4.59"/><circle class="cls-7" cx="745.88" cy="20.45" r="2.29"/><rect class="cls-6" x="846.16" y="51.7" width="4.28" height="4.28"/><circle class="cls-7" cx="848.3" cy="53.84" r="2.14"/><rect class="cls-6" x="196.97" y="296.04" width="6.76" height="6.76"/><circle class="cls-7" cx="200.35" cy="299.42" r="3.38"/><rect class="cls-6" x="207.76" y="185.52" width="4.35" height="4.35"/><circle class="cls-7" cx="209.94" cy="187.69" r="2.18"/><rect class="cls-6" x="241.7" y="95.15" width="8.17" height="8.17"/><circle class="cls-7" cx="245.79" cy="99.24" r="4.09"/><rect class="cls-6" x="336.81" y="102.83" width="5.36" height="5.36"/><circle class="cls-7" cx="339.49" cy="105.51" r="2.68"/><rect class="cls-6" x="395.97" y="11.13" width="1.97" height="1.97"/><circle class="cls-7" cx="396.96" cy="12.12" r="0.98"/><rect class="cls-6" x="292.37" y="492.31" width="3.02" height="3.02"/><circle class="cls-7" cx="293.88" cy="493.82" r="1.51"/><rect class="cls-6" x="287.38" y="427.73" width="7.09" height="7.09"/><circle class="cls-7" cx="290.93" cy="431.28" r="3.55"/><rect class="cls-6" x="282.19" y="313.22" width="4.38" height="4.38"/><circle class="cls-7" cx="284.38" cy="315.42" r="2.19"/><rect class="cls-6" x="381.82" y="252.55" width="2.46" height="2.46"/><circle class="cls-7" cx="383.05" cy="253.79" r="1.23"/><rect class="cls-6" x="190.65" y="661.92" width="2.25" height="2.25"/><circle class="cls-7" cx="191.78" cy="663.05" r="1.13"/><rect class="cls-6" x="213.81" y="595.24" width="3.71" height="3.71"/><circle class="cls-7" cx="215.67" cy="597.09" r="1.86"/><rect class="cls-6" x="285.47" y="553.4" width="7.71" height="7.71"/><circle class="cls-7" cx="289.32" cy="557.25" r="3.86"/><rect class="cls-6" x="103.46" y="502.32" width="4.8" height="4.8"/><circle class="cls-7" cx="105.86" cy="504.72" r="2.4"/><rect class="cls-6" x="164.02" y="474.09" width="1.51" height="1.51"/><circle class="cls-7" cx="164.78" cy="474.84" r="0.75"/><rect class="cls-6" x="207.34" y="253.88" width="3.16" height="3.16"/><circle class="cls-7" cx="208.92" cy="255.46" r="1.58"/><rect class="cls-6" x="302" y="248.08" width="1.37" height="1.37"/><circle class="cls-7" cx="302.69" cy="248.76" r="0.68"/><rect class="cls-6" x="132.34" y="315.05" width="1.63" height="1.63"/><circle class="cls-7" cx="133.15" cy="315.87" r="0.82"/><rect class="cls-6" x="184.61" y="250.03" width="4.55" height="4.55"/><circle class="cls-7" cx="186.89" cy="252.3" r="2.27"/><rect class="cls-6" x="227.4" y="207.12" width="6.3" height="6.3"/><circle class="cls-7" cx="230.55" cy="210.26" r="3.15"/><rect class="cls-6" x="316.29" y="178.13" width="8.07" height="8.07"/><circle class="cls-7" cx="320.32" cy="182.16" r="4.03"/><rect class="cls-6" x="236.66" y="515.5" width="6.46" height="6.46"/><circle class="cls-7" cx="239.89" cy="518.73" r="3.23"/><rect class="cls-6" x="345.34" y="443.51" width="1.38" height="1.38"/><circle class="cls-7" cx="346.03" cy="444.2" r="0.69"/><rect class="cls-6" x="372.73" y="381.01" width="3.27" height="3.27"/><circle class="cls-7" cx="374.37" cy="382.64" r="1.64"/><rect class="cls-6" x="516.03" y="361.3" width="9.81" height="9.81"/><circle class="cls-7" cx="520.94" cy="366.21" r="4.9"/><rect class="cls-6" x="83.57" y="962.13" width="0.95" height="0.95"/><circle class="cls-7" cx="84.05" cy="962.6" r="0.47"/><rect class="cls-6" x="172.35" y="994.07" width="3.18" height="3.18"/><circle class="cls-7" cx="173.94" cy="995.66" r="1.59"/><rect class="cls-6" x="257.85" y="1060.74" width="5.79" height="5.79"/><circle class="cls-7" cx="260.75" cy="1063.63" r="2.9"/><rect class="cls-6" x="373.34" y="1087.39" width="5.04" height="5.04"/><circle class="cls-7" cx="375.85" cy="1089.9" r="2.52"/><rect class="cls-6" x="434.12" y="1071.04" width="7.54" height="7.54"/><circle class="cls-7" cx="437.89" cy="1074.81" r="3.77"/><rect class="cls-6" x="503.29" y="1168.74" width="5.78" height="5.78"/><circle class="cls-7" cx="506.18" cy="1171.62" r="2.89"/><rect class="cls-6" x="636.78" y="1191.19" width="3.8" height="3.8"/><circle class="cls-7" cx="638.68" cy="1193.1" r="1.9"/><rect class="cls-6" x="742.96" y="1181.82" width="8.09" height="8.09"/><circle class="cls-7" cx="747" cy="1185.87" r="4.04"/><rect class="cls-6" x="850.64" y="1206.44" width="5.27" height="5.27"/><circle class="cls-7" cx="853.27" cy="1209.08" r="2.63"/><rect class="cls-6" x="1022.22" y="1198.75" width="6.72" height="6.72"/><circle class="cls-7" cx="1025.58" cy="1202.11" r="3.36"/><rect class="cls-6" x="1118.42" y="1151.98" width="3.41" height="3.41"/><circle class="cls-7" cx="1120.12" cy="1153.68" r="1.7"/><rect class="cls-6" x="1199.89" y="1072.06" width="8.28" height="8.28"/><circle class="cls-7" cx="1204.03" cy="1076.2" r="4.14"/><rect class="cls-6" x="1294.97" y="929.47" width="4.61" height="4.61"/><circle class="cls-7" cx="1297.28" cy="931.77" r="2.3"/><rect class="cls-6" x="1337.29" y="858.58" width="1.65" height="1.65"/><circle class="cls-7" cx="1338.12" cy="859.4" r="0.82"/><rect class="cls-6" x="1378.97" y="769.73" width="7.39" height="7.39"/><circle class="cls-7" cx="1382.66" cy="773.42" r="3.69"/><rect class="cls-6" x="1391.73" y="715.57" width="9.18" height="9.18"/><circle class="cls-7" cx="1396.32" cy="720.16" r="4.59"/><rect class="cls-6" x="1479.27" y="670.58" width="5.03" height="5.03"/><circle class="cls-7" cx="1481.79" cy="673.1" r="2.52"/><rect class="cls-6" x="1285.38" y="567.26" width="4.1" height="4.1"/><circle class="cls-7" cx="1287.43" cy="569.31" r="2.05"/><rect class="cls-6" x="1255.96" y="706.09" width="6.88" height="6.88"/><circle class="cls-7" cx="1259.4" cy="709.53" r="3.44"/><rect class="cls-6" x="1219.09" y="795.11" width="6.72" height="6.72"/><circle class="cls-7" cx="1222.45" cy="798.48" r="3.36"/><rect class="cls-6" x="1208.77" y="863.95" width="7.37" height="7.37"/><circle class="cls-7" cx="1212.46" cy="867.63" r="3.68"/><rect class="cls-6" x="1119.93" y="891.23" width="9.44" height="9.44"/><circle class="cls-7" cx="1124.66" cy="895.95" r="4.72"/><rect class="cls-6" x="1055.68" y="845.14" width="9.17" height="9.17"/><circle class="cls-7" cx="1060.26" cy="849.73" r="4.59"/><rect class="cls-6" x="1014.5" y="921.05" width="8.02" height="8.02"/><circle class="cls-7" cx="1018.51" cy="925.06" r="4.01"/><rect class="cls-6" x="928.4" y="885.93" width="7.62" height="7.62"/><circle class="cls-7" cx="932.22" cy="889.74" r="3.81"/><rect class="cls-6" x="852.31" y="924.67" width="8.18" height="8.18"/><circle class="cls-7" cx="856.4" cy="928.76" r="4.09"/><rect class="cls-6" x="735.14" y="977.51" width="7.98" height="7.98"/><circle class="cls-7" cx="739.13" cy="981.5" r="3.99"/><rect class="cls-6" x="630.12" y="958.21" width="6.88" height="6.88"/><circle class="cls-7" cx="633.57" cy="961.65" r="3.44"/><rect class="cls-6" x="557.55" y="940.36" width="9.64" height="9.64"/><circle class="cls-7" cx="562.37" cy="945.18" r="4.82"/><rect class="cls-6" x="515.05" y="838.08" width="5.25" height="5.25"/><circle class="cls-7" cx="517.68" cy="840.71" r="2.63"/><rect class="cls-6" x="413.16" y="863.58" width="5.15" height="5.15"/><circle class="cls-7" cx="415.73" cy="866.16" r="2.58"/><rect class="cls-6" x="398.96" y="801.64" width="3.47" height="3.47"/><circle class="cls-7" cx="400.69" cy="803.37" r="1.74"/><rect class="cls-6" x="356.88" y="749.63" width="8.93" height="8.93"/><circle class="cls-7" cx="361.35" cy="754.09" r="4.46"/><rect class="cls-6" x="255.06" y="679.99" width="9.33" height="9.33"/><circle class="cls-7" cx="259.72" cy="684.66" r="4.67"/><rect class="cls-6" x="252.51" y="626" width="5.96" height="5.96"/><circle class="cls-7" cx="255.49" cy="628.98" r="2.98"/><rect class="cls-6" x="223.85" y="594.2" width="4.19" height="4.19"/><circle class="cls-7" cx="225.95" cy="596.3" r="2.1"/><rect class="cls-6" x="222.3" y="552.97" width="5.17" height="5.17"/><circle class="cls-7" cx="224.88" cy="555.55" r="2.58"/><rect class="cls-6" x="1437.3" y="55.66" width="4.9" height="4.9"/><circle class="cls-7" cx="1439.75" cy="58.11" r="2.45"/><rect class="cls-6" x="571.44" y="43.94" width="8.56" height="8.56"/><circle class="cls-7" cx="575.72" cy="48.22" r="4.28"/><rect class="cls-6" x="434.35" y="66.95" width="1.29" height="1.29"/><circle class="cls-7" cx="434.99" cy="67.59" r="0.65"/><rect class="cls-6" x="357.09" y="70.76" width="2.05" height="2.05"/><circle class="cls-7" cx="358.12" cy="71.78" r="1.03"/><rect class="cls-6" x="208.44" y="111.3" width="6.99" height="6.99"/><circle class="cls-7" cx="211.94" cy="114.8" r="3.49"/><rect class="cls-6" x="92.71" y="216.33" width="5.4" height="5.4"/><circle class="cls-7" cx="95.41" cy="219.03" r="2.7"/><rect class="cls-6" x="62.78" y="305.68" width="3.23" height="3.23"/><circle class="cls-7" cx="64.4" cy="307.3" r="1.62"/><rect class="cls-6" x="65.67" y="426.95" width="9.33" height="9.33"/><circle class="cls-7" cx="70.34" cy="431.62" r="4.67"/><rect class="cls-6" x="42.94" y="555.54" width="4.68" height="4.68"/><circle class="cls-7" cx="45.28" cy="557.88" r="2.34"/><rect class="cls-6" x="77.61" y="627.81" width="0.98" height="0.98"/><circle class="cls-7" cx="78.1" cy="628.3" r="0.49"/><rect class="cls-6" x="65.62" y="708.83" width="5.34" height="5.34"/><circle class="cls-7" cx="68.3" cy="711.51" r="2.67"/><rect class="cls-6" x="36.92" y="823.69" width="4.05" height="4.05"/><circle class="cls-7" cx="38.95" cy="825.71" r="2.02"/><rect class="cls-6" x="285.59" y="746.62" width="6.65" height="6.65"/><circle class="cls-7" cx="288.92" cy="749.95" r="3.33"/><rect class="cls-6" x="246.54" y="680.02" width="4.49" height="4.49"/><circle class="cls-7" cx="248.78" cy="682.26" r="2.24"/><rect class="cls-6" x="228.63" y="525.53" width="4.41" height="4.41"/><circle class="cls-7" cx="230.84" cy="527.74" r="2.21"/><rect class="cls-6" x="186.69" y="453.93" width="5.6" height="5.6"/><circle class="cls-7" cx="189.49" cy="456.72" r="2.8"/><rect class="cls-6" x="141.93" y="359.77" width="4.18" height="4.18"/><circle class="cls-7" cx="144.02" cy="361.86" r="2.09"/><rect class="cls-6" x="-9" y="608.15" width="9.68" height="9.68"/><circle class="cls-7" cx="-4.15" cy="612.99" r="4.84"/><rect class="cls-6" x="89.87" y="845.65" width="6.33" height="6.33"/><circle class="cls-7" cx="93.04" cy="848.82" r="3.17"/><rect class="cls-6" x="133.72" y="900.73" width="4.38" height="4.38"/><circle class="cls-7" cx="135.91" cy="902.92" r="2.19"/><rect class="cls-6" x="223.02" y="971.57" width="7.88" height="7.88"/><circle class="cls-7" cx="226.96" cy="975.51" r="3.94"/><rect class="cls-6" x="349.15" y="1004.9" width="0.8" height="0.8"/><circle class="cls-7" cx="349.55" cy="1005.3" r="0.4"/><rect class="cls-6" x="1469.37" y="184.34" width="6.81" height="6.81"/><circle class="cls-7" cx="1472.77" cy="187.74" r="3.41"/><rect class="cls-6" x="1427.79" y="104.14" width="3.18" height="3.18"/><circle class="cls-7" cx="1429.38" cy="105.74" r="1.59"/><rect class="cls-6" x="1345.86" y="79.3" width="7.41" height="7.41"/><circle class="cls-7" cx="1349.57" cy="83.01" r="3.7"/><rect class="cls-6" x="17.17" y="866.51" width="0.62" height="0.62"/><circle class="cls-7" cx="17.49" cy="866.82" r="0.31"/><rect class="cls-6" x="122.75" y="941.34" width="2.77" height="2.77"/><circle class="cls-7" cx="124.14" cy="942.72" r="1.39"/><rect class="cls-6" x="162.05" y="1005.34" width="2" height="2"/><circle class="cls-7" cx="163.05" cy="1006.34" r="1"/><rect class="cls-6" x="225.1" y="1078.26" width="4.92" height="4.92"/><circle class="cls-7" cx="227.56" cy="1080.72" r="2.46"/><rect class="cls-6" x="405.08" y="1063.81" width="7.59" height="7.59"/><circle class="cls-7" cx="408.87" cy="1067.6" r="3.79"/><rect class="cls-6" x="506.86" y="1068.01" width="1.24" height="1.24"/><circle class="cls-7" cx="507.48" cy="1068.63" r="0.62"/><rect class="cls-6" x="580.81" y="1044.64" width="5.72" height="5.72"/><circle class="cls-7" cx="583.67" cy="1047.5" r="2.86"/><rect class="cls-6" x="705.38" y="1123.03" width="3.9" height="3.9"/><circle class="cls-7" cx="707.33" cy="1124.98" r="1.95"/><rect class="cls-6" x="780.56" y="1070.51" width="4.06" height="4.06"/><circle class="cls-7" cx="782.59" cy="1072.54" r="2.03"/><rect class="cls-6" x="889.94" y="1125.15" width="1.56" height="1.56"/><circle class="cls-7" cx="890.72" cy="1125.93" r="0.78"/><rect class="cls-6" x="943.41" y="1037.54" width="9.79" height="9.79"/><circle class="cls-7" cx="948.31" cy="1042.43" r="4.89"/><rect class="cls-6" x="1116.3" y="1104.74" width="7.74" height="7.74"/><circle class="cls-7" cx="1120.17" cy="1108.61" r="3.87"/><rect class="cls-6" x="1272.65" y="1029.96" width="4.85" height="4.85"/><circle class="cls-7" cx="1275.07" cy="1032.39" r="2.43"/><rect class="cls-6" x="1425.01" y="946.54" width="4.73" height="4.73"/><circle class="cls-7" cx="1427.38" cy="948.9" r="2.37"/><rect class="cls-6" x="1477.52" y="249.19" width="6.53" height="6.53"/><circle class="cls-7" cx="1480.79" cy="252.45" r="3.27"/><rect class="cls-6" x="1324.77" y="1125.34" width="0.74" height="0.74"/><circle class="cls-7" cx="1325.14" cy="1125.71" r="0.37"/><rect class="cls-6" x="1437.28" y="1071.75" width="5.23" height="5.23"/><circle class="cls-7" cx="1439.9" cy="1074.37" r="2.62"/><rect class="cls-6" x="56.5" y="985.02" width="2.14" height="2.14"/><circle class="cls-7" cx="57.57" cy="986.09" r="1.07"/><rect class="cls-6" x="1334.44" y="567.73" width="1.43" height="1.43"/><circle class="cls-7" cx="1335.15" cy="568.44" r="0.72"/><rect class="cls-6" x="1272.79" y="623.13" width="2.72" height="2.72"/><circle class="cls-7" cx="1274.15" cy="624.49" r="1.36"/><rect class="cls-6" x="1192.86" y="652.66" width="7.52" height="7.52"/><circle class="cls-7" cx="1196.62" cy="656.42" r="3.76"/><rect class="cls-6" x="1131.17" y="733.89" width="4.2" height="4.2"/><circle class="cls-7" cx="1133.27" cy="735.98" r="2.1"/><rect class="cls-6" x="1038.69" y="753.21" width="1.33" height="1.33"/><circle class="cls-7" cx="1039.35" cy="753.87" r="0.66"/><rect class="cls-6" x="936.84" y="871.63" width="5.37" height="5.37"/><circle class="cls-7" cx="939.53" cy="874.32" r="2.69"/><rect class="cls-6" x="781.15" y="906.76" width="7.4" height="7.4"/><circle class="cls-7" cx="784.85" cy="910.46" r="3.7"/><rect class="cls-6" x="1297.89" y="288.93" width="9.42" height="9.42"/><circle class="cls-7" cx="1302.6" cy="293.64" r="4.71"/><rect class="cls-6" x="1315.17" y="378.39" width="4.02" height="4.02"/><circle class="cls-7" cx="1317.18" cy="380.4" r="2.01"/><rect class="cls-6" x="1297.33" y="454.78" width="4.26" height="4.26"/><circle class="cls-7" cx="1299.46" cy="456.91" r="2.13"/><rect class="cls-6" x="1222.76" y="507.75" width="2.67" height="2.67"/><circle class="cls-7" cx="1224.1" cy="509.08" r="1.34"/><rect class="cls-6" x="1198.67" y="531.48" width="2" height="2"/><circle class="cls-7" cx="1199.67" cy="532.48" r="1"/><rect class="cls-6" x="1143.8" y="501.24" width="6.54" height="6.54"/><circle class="cls-7" cx="1147.07" cy="504.5" r="3.27"/><rect class="cls-6" x="1225.47" y="589.02" width="4.25" height="4.25"/><circle class="cls-7" cx="1227.6" cy="591.14" r="2.13"/><rect class="cls-6" x="1290.44" y="555.61" width="2.76" height="2.76"/><circle class="cls-7" cx="1291.82" cy="556.99" r="1.38"/><rect class="cls-6" x="1280.41" y="461.27" width="9.51" height="9.51"/><circle class="cls-7" cx="1285.17" cy="466.02" r="4.76"/><rect class="cls-6" x="1308.44" y="401.75" width="7.77" height="7.77"/><circle class="cls-7" cx="1312.32" cy="405.63" r="3.88"/><rect class="cls-6" x="1422.35" y="330.27" width="6.6" height="6.6"/><circle class="cls-7" cx="1425.65" cy="333.57" r="3.3"/><g id="moon"><path class="cls-8" d="M750,861A335,335,0,1,1,986.88,762.9,332.82,332.82,0,0,1,750,861Z"/><path class="cls-9" d="M750,816a290,290,0,1,1,205.06-84.94A288.11,288.11,0,0,1,750,816Z"/><path class="cls-10" d="M750,771a245,245,0,1,1,173.24-71.76A243.41,243.41,0,0,1,750,771Z"/><circle class="cls-11" cx="750" cy="526.02" r="200"/><ellipse class="cls-12" cx="635.06" cy="572.67" rx="21.94" ry="25.33"/><ellipse class="cls-12" cx="730.73" cy="622.66" rx="21.94" ry="25.33"/><ellipse class="cls-12" cx="777.74" cy="668.94" rx="16.01" ry="18.49"/><ellipse class="cls-12" cx="775.38" cy="597.32" rx="16.01" ry="18.49"/><circle class="cls-12" cx="860.32" cy="465.9" r="30.81"/><circle class="cls-12" cx="708.79" cy="436" r="51.79"/></g></g></g></svg>